<?xml version="1.0" standalone="no"?>
<!DOCTYPE svg PUBLIC "-//W3C//DTD SVG 20010904//EN"
 "http://www.w3.org/TR/2001/REC-SVG-20010904/DTD/svg10.dtd">
<svg version="1.0" xmlns="http://www.w3.org/2000/svg"
 width="1080.000000pt" height="1920.000000pt" viewBox="0 0 1080.000000 1920.000000"
 preserveAspectRatio="xMidYMid meet">

<g transform="translate(0.000000,1920.000000) scale(0.100000,-0.100000)"
fill="#000000" stroke="none">
<path d="M10174 18990 c-11 -4 -33 -22 -47 -40 -47 -56 -31 -146 33 -184 97
-57 219 46 179 151 -25 65 -101 99 -165 73z"/>
<path d="M2146 17920 l-57 -70 49 0 c45 0 56 5 126 61 42 33 76 65 76 70 0 5
-31 9 -69 9 l-69 0 -56 -70z"/>
<path d="M1700 17640 l0 -340 65 0 65 0 0 340 0 340 -65 0 -65 0 0 -340z"/>
<path d="M1167 17936 c-109 -30 -177 -113 -197 -240 -29 -181 42 -337 173
-383 82 -28 200 -24 271 11 110 54 151 138 151 306 -1 88 -4 113 -24 158 -28
61 -92 123 -148 141 -60 19 -172 23 -226 7z m191 -123 c45 -33 65 -79 70 -158
9 -138 -31 -222 -116 -245 -98 -26 -180 28 -202 135 -25 122 11 242 84 276 51
24 126 20 164 -8z"/>
<path d="M2507 17728 c6 -117 12 -214 12 -215 1 -2 23 -3 50 -3 l48 0 6 78 c4
42 9 139 13 215 l7 137 -74 0 -74 0 12 -212z"/>
<path d="M2085 17790 c-58 -12 -95 -28 -95 -40 0 -9 27 -68 35 -78 2 -2 24 4
49 12 98 33 166 11 166 -53 l0 -29 -87 -4 c-153 -8 -213 -51 -213 -153 0 -100
53 -150 155 -149 60 1 110 18 134 48 19 23 28 20 40 -14 9 -27 14 -30 56 -30
l46 0 -3 199 c-3 225 -7 238 -82 275 -43 21 -142 29 -201 16z m155 -301 c0
-57 -42 -99 -99 -99 -44 0 -71 20 -71 53 0 52 50 84 133 86 37 1 37 1 37 -40z"/>
<path d="M9012 16623 l3 -1058 34 -63 c41 -75 94 -125 170 -161 l56 -26 413
-3 412 -3 0 -304 0 -305 120 0 120 0 0 305 0 305 230 0 230 0 0 495 0 495
-730 0 -730 0 0 415 0 415 730 0 730 0 0 275 0 275 -895 0 -895 0 2 -1057z"/>
<path d="M2540 17430 c-26 -6 -50 -41 -50 -73 0 -10 11 -29 25 -42 48 -49 125
-20 125 48 0 17 -4 38 -8 45 -12 17 -62 30 -92 22z"/>
<path d="M10714 16894 c-36 -62 -74 -193 -74 -256 0 -85 42 -134 122 -140 l33
-3 0 220 0 220 -27 3 c-22 3 -31 -4 -54 -44z"/>
<path d="M940 16520 l0 -190 135 0 135 0 0 45 0 45 -80 0 -80 0 0 30 0 30 65
0 65 0 0 40 0 40 -65 0 -65 0 0 30 0 30 80 0 80 0 0 45 0 45 -135 0 -135 0 0
-190z"/>
<path d="M1560 16655 c0 -38 -3 -45 -20 -45 -16 0 -20 -7 -20 -35 0 -28 4 -35
20 -35 18 0 20 -7 20 -85 0 -73 3 -88 21 -106 18 -18 30 -21 80 -17 32 2 61 7
65 11 4 3 3 22 0 42 -6 31 -11 35 -36 35 -30 0 -30 0 -30 60 0 57 1 60 25 60
22 0 25 4 25 35 0 31 -3 35 -25 35 -23 0 -25 4 -25 45 l0 45 -50 0 -50 0 0
-45z"/>
<path d="M1323 16609 c-63 -19 -95 -96 -55 -133 11 -9 47 -26 80 -37 34 -11
62 -24 62 -29 0 -21 -57 -18 -114 5 -14 6 -24 2 -37 -16 -10 -13 -19 -29 -19
-35 0 -16 77 -34 144 -34 71 0 116 33 116 85 0 44 -28 70 -92 86 -27 7 -54 19
-60 26 -17 20 17 28 65 13 38 -11 42 -10 59 10 25 31 23 37 -14 49 -54 17
-101 20 -135 10z"/>
<path d="M1827 16606 c-60 -17 -62 -19 -47 -55 12 -30 13 -30 41 -16 34 18 81
19 97 3 24 -24 12 -33 -49 -33 -56 0 -63 -3 -90 -33 -37 -41 -37 -75 0 -113
35 -35 89 -39 137 -10 30 18 31 18 42 0 9 -14 24 -19 52 -19 l40 0 0 45 c0 25
-4 45 -10 45 -5 0 -10 23 -10 51 0 28 -7 66 -16 84 -24 52 -104 74 -187 51z
m93 -156 c23 -15 -1 -44 -39 -48 -27 -3 -31 0 -31 22 0 33 37 47 70 26z"/>
<path d="M2243 16609 c-18 -5 -35 -14 -38 -19 -9 -15 -25 -12 -25 5 0 11 -12
15 -45 15 l-45 0 0 -140 0 -140 50 0 50 0 0 83 c0 72 3 87 21 103 15 14 24 16
37 8 14 -9 18 -30 20 -103 l3 -91 49 0 50 0 0 83 c0 69 3 87 18 100 43 39 62
8 62 -102 l0 -81 45 0 45 0 0 119 c0 102 -3 122 -19 142 -26 32 -88 32 -131 1
-25 -19 -31 -20 -36 -8 -3 8 -19 19 -36 25 -35 12 -32 12 -75 0z"/>
<path d="M2689 16611 c-48 -16 -78 -43 -95 -86 -39 -102 29 -195 141 -195 190
0 208 260 20 284 -22 3 -52 1 -66 -3z m90 -112 c32 -58 -45 -121 -83 -67 -9
12 -16 29 -16 38 0 9 7 26 16 38 21 31 63 26 83 -9z"/>
<path d="M2993 16609 c-63 -19 -95 -96 -55 -133 11 -9 47 -26 80 -37 34 -11
62 -24 62 -29 0 -21 -57 -18 -114 5 -14 6 -24 2 -37 -16 -10 -13 -19 -29 -19
-35 0 -16 77 -34 144 -34 71 0 116 33 116 85 0 44 -28 70 -92 86 -27 7 -54 19
-60 26 -17 20 17 28 65 13 38 -11 42 -10 59 10 25 31 23 37 -14 49 -54 17
-101 20 -135 10z"/>
<path d="M2140 16060 l0 -40 50 0 50 0 0 40 0 40 -50 0 -50 0 0 -40z"/>
<path d="M3430 16031 l0 -68 -40 19 c-37 19 -44 19 -78 6 -101 -38 -114 -212
-20 -264 35 -20 101 -17 130 5 24 19 24 19 36 0 9 -14 24 -19 57 -19 l45 0 0
39 c0 22 -6 44 -15 51 -12 10 -15 41 -15 156 l0 144 -50 0 -50 0 0 -69z m-12
-133 c16 -16 16 -80 0 -96 -17 -17 -54 -15 -72 4 -18 18 -21 56 -6 85 12 22
59 26 78 7z"/>
<path d="M4240 16031 l0 -68 -40 19 c-37 19 -44 19 -78 6 -101 -38 -114 -212
-20 -264 35 -20 101 -17 130 5 24 19 24 19 36 0 9 -14 24 -19 57 -19 l45 0 0
39 c0 22 -6 44 -15 51 -12 10 -15 41 -15 156 l0 144 -50 0 -50 0 0 -69z m-12
-133 c16 -16 16 -80 0 -96 -17 -17 -54 -15 -72 4 -18 18 -21 56 -6 85 12 22
59 26 78 7z"/>
<path d="M1085 15993 c-11 -3 -30 -14 -42 -26 l-23 -20 0 21 c0 19 -6 22 -40
22 l-40 0 0 -195 0 -195 50 0 50 0 0 71 0 70 22 -15 c29 -20 97 -20 126 0 33
23 52 67 52 124 0 58 -18 100 -52 122 -28 18 -75 28 -103 21z m43 -95 c17 -17
15 -74 -4 -92 -33 -34 -84 -5 -84 49 0 38 16 55 50 55 14 0 31 -5 38 -12z"/>
<path d="M1440 15993 c-8 -3 -25 -15 -37 -26 l-23 -20 0 21 c0 20 -5 22 -50
22 l-50 0 0 -140 0 -140 50 0 49 0 3 88 3 87 43 15 c41 14 42 16 42 57 0 43
-2 46 -30 36z"/>
<path d="M1599 15991 c-48 -16 -78 -43 -95 -86 -22 -58 -12 -106 29 -152 26
-28 42 -36 79 -40 26 -3 62 -3 81 1 37 7 92 50 83 65 -9 14 -78 23 -89 12 -23
-23 -87 -7 -87 21 0 4 45 8 100 8 100 0 100 0 100 25 0 44 -31 104 -64 124
-38 24 -100 34 -137 22z m73 -78 c28 -25 22 -33 -27 -33 -48 0 -62 19 -27 39
24 14 33 13 54 -6z"/>
<path d="M1917 15986 c-49 -18 -67 -34 -84 -73 -43 -105 24 -203 140 -203 51
0 91 16 120 48 18 19 17 20 -29 36 -32 11 -51 13 -58 6 -29 -29 -86 5 -86 53
0 44 55 76 86 49 5 -5 31 -2 57 5 l49 15 -24 25 c-12 14 -30 28 -38 33 -31 16
-96 19 -133 6z"/>
<path d="M2363 15989 c-63 -19 -95 -96 -55 -133 11 -9 47 -26 80 -37 34 -11
62 -24 62 -29 0 -21 -57 -18 -114 5 -14 6 -24 2 -37 -16 -10 -13 -19 -29 -19
-35 0 -16 77 -34 144 -34 71 0 116 33 116 85 0 44 -28 70 -92 86 -27 7 -54 19
-60 26 -17 20 17 28 65 13 38 -11 42 -10 59 10 25 31 23 37 -14 49 -54 17
-101 20 -135 10z"/>
<path d="M2660 15991 c-19 -4 -45 -13 -58 -20 -21 -11 -21 -13 -7 -41 14 -28
16 -28 42 -14 41 21 90 18 103 -6 12 -22 10 -23 -38 -20 -45 2 -99 -18 -117
-43 -23 -33 -19 -84 10 -112 32 -32 100 -35 138 -5 l26 21 11 -21 c8 -15 21
-20 55 -20 l45 0 0 41 c0 23 -7 47 -15 55 -10 10 -15 35 -15 68 0 71 -23 101
-91 115 -27 6 -51 10 -52 10 -1 -1 -18 -4 -37 -8z m79 -160 c10 -7 11 -13 2
-30 -14 -26 -68 -29 -78 -5 -11 30 43 56 76 35z"/>
<path d="M3053 15989 c-18 -5 -35 -14 -38 -19 -9 -15 -25 -12 -25 5 0 11 -12
15 -45 15 l-45 0 0 -140 0 -140 50 0 50 0 0 80 c0 67 3 83 20 100 47 47 70 14
70 -99 l0 -81 50 0 50 0 0 93 c0 97 -12 158 -34 176 -20 16 -67 21 -103 10z"/>
<path d="M3690 15990 c-43 -11 -99 -70 -102 -107 -6 -114 44 -173 147 -173 91
0 155 58 155 140 0 99 -95 166 -200 140z m84 -96 c20 -20 20 -53 0 -82 -17
-24 -53 -29 -72 -10 -16 16 -16 80 0 96 17 17 54 15 72 -4z"/>
<path d="M4501 15990 c-73 -18 -121 -104 -101 -181 17 -64 72 -99 153 -99 57
0 122 32 122 60 0 19 -60 33 -84 20 -37 -19 -91 -7 -91 22 0 4 46 8 101 8
l102 0 -5 45 c-3 25 -13 56 -22 70 -30 46 -109 71 -175 55z m70 -70 c36 -20
23 -40 -26 -40 -48 0 -55 9 -29 34 18 19 28 20 55 6z"/>
<path d="M2140 15850 l0 -140 50 0 50 0 0 140 0 140 -50 0 -50 0 0 -140z"/>
<path d="M1130 15411 l0 -68 -38 18 c-50 25 -93 16 -131 -27 -59 -67 -44 -191
28 -228 42 -22 103 -20 133 3 24 19 24 19 36 0 9 -14 24 -19 52 -19 l40 0 0
45 c0 25 -4 45 -10 45 -6 0 -10 57 -10 150 l0 150 -50 0 -50 0 0 -69z m-18
-138 c26 -23 24 -79 -3 -93 -61 -33 -111 40 -66 98 13 17 47 15 69 -5z"/>
<path d="M2150 15410 c0 -38 -3 -70 -7 -70 -3 0 -15 7 -24 16 -25 23 -89 23
-123 1 -52 -34 -73 -135 -41 -197 35 -68 123 -93 178 -50 l26 21 11 -21 c8
-15 21 -20 55 -20 l45 0 0 45 c0 25 -4 45 -10 45 -6 0 -10 57 -10 150 l0 150
-50 0 -50 0 0 -70z m-16 -142 c21 -29 20 -57 -1 -80 -32 -36 -93 -10 -93 40 0
56 64 83 94 40z"/>
<path d="M1389 15371 c-48 -16 -78 -43 -95 -86 -39 -102 29 -195 141 -195 190
0 208 260 20 284 -22 3 -52 1 -66 -3z m90 -112 c32 -58 -45 -121 -83 -67 -9
12 -16 29 -16 38 0 9 7 26 16 38 21 31 63 26 83 -9z"/>
<path d="M1687 15366 c-60 -17 -62 -19 -47 -55 12 -30 13 -30 41 -16 34 18 81
19 97 3 24 -24 12 -33 -49 -33 -56 0 -63 -3 -90 -33 -37 -41 -37 -75 0 -113
35 -35 89 -39 137 -10 30 18 31 18 42 0 9 -14 24 -19 52 -19 l40 0 0 45 c0 25
-4 45 -10 45 -5 0 -10 23 -10 51 0 28 -7 66 -16 84 -24 52 -104 74 -187 51z
m93 -156 c23 -15 -1 -44 -39 -48 -27 -3 -31 0 -31 22 0 33 37 47 70 26z"/>
<path d="M2397 15366 c-68 -25 -97 -66 -97 -138 0 -85 58 -138 150 -138 93 0
150 53 150 140 0 104 -102 173 -203 136z m93 -95 c24 -45 2 -101 -40 -101 -42
0 -64 56 -40 101 7 12 21 19 40 19 19 0 33 -7 40 -19z"/>
<path d="M2790 15369 c-14 -5 -33 -20 -42 -32 l-18 -22 0 28 c0 25 -3 27 -45
27 l-45 0 0 -140 0 -140 50 0 50 0 0 84 c0 91 4 99 58 111 30 6 32 9 32 51 0
47 -1 48 -40 33z"/>
<path d="M2959 15371 c-48 -16 -78 -43 -95 -86 -22 -58 -12 -106 29 -152 26
-28 42 -36 79 -40 26 -3 62 -3 81 1 37 7 92 50 83 65 -9 14 -78 23 -89 12 -23
-23 -87 -7 -87 21 0 4 45 8 100 8 100 0 100 0 100 25 0 44 -31 104 -64 124
-38 24 -100 34 -137 22z m73 -78 c28 -25 22 -33 -27 -33 -48 0 -62 19 -27 39
24 14 33 13 54 -6z"/>
<path d="M3260 15369 c-43 -18 -70 -50 -70 -83 0 -17 4 -36 8 -42 10 -16 61
-40 99 -49 37 -7 52 -23 33 -35 -11 -7 -32 -4 -101 14 -21 6 -27 3 -37 -19 -7
-14 -12 -30 -12 -34 0 -13 83 -31 145 -31 49 0 60 4 86 29 59 60 30 116 -78
147 -29 8 -53 20 -53 25 0 18 31 22 73 9 38 -11 42 -10 59 12 24 31 23 35 -14
47 -54 17 -111 21 -138 10z"/>
<path d="M3745 15373 c-11 -3 -30 -14 -42 -26 l-23 -20 0 21 c0 19 -6 22 -40
22 l-40 0 0 -195 0 -195 50 0 50 0 0 71 0 70 22 -15 c29 -20 97 -20 126 0 33
23 52 67 52 124 0 58 -18 100 -52 122 -28 18 -75 28 -103 21z m43 -95 c17 -17
15 -74 -4 -92 -33 -34 -84 -5 -84 49 0 38 16 55 50 55 14 0 31 -5 38 -12z"/>
<path d="M4030 15373 c-73 -12 -92 -32 -70 -74 10 -18 13 -18 40 -4 51 27 110
15 110 -22 0 -9 -9 -11 -30 -7 -112 23 -195 -78 -124 -150 34 -34 98 -36 138
-5 l27 22 15 -22 c11 -15 26 -21 55 -21 l39 0 0 45 c0 25 -4 45 -9 45 -4 0
-11 29 -14 65 -5 65 -20 95 -57 115 -21 11 -90 19 -120 13z m70 -163 c23 -15
-1 -44 -39 -48 -38 -4 -54 23 -26 44 22 16 44 18 65 4z"/>
<path d="M4420 15373 c-8 -3 -25 -15 -37 -26 l-23 -20 0 21 c0 19 -5 22 -45
22 l-45 0 0 -140 0 -140 50 0 50 0 0 90 0 90 46 11 c45 12 45 12 42 52 -3 41
-11 50 -38 40z"/>
<path d="M4570 15371 c-19 -4 -45 -13 -58 -20 -21 -11 -21 -13 -7 -41 14 -28
16 -28 42 -14 41 21 90 18 103 -6 12 -22 10 -23 -38 -20 -45 2 -99 -18 -117
-43 -23 -33 -19 -84 10 -112 32 -32 100 -35 138 -5 l26 21 11 -21 c8 -15 21
-20 55 -20 l45 0 0 41 c0 23 -7 47 -15 55 -10 10 -15 35 -15 68 0 71 -23 101
-91 115 -27 6 -51 10 -52 10 -1 -1 -18 -4 -37 -8z m79 -160 c10 -7 11 -13 2
-30 -14 -26 -68 -29 -78 -5 -11 30 43 56 76 35z"/>
<path d="M7027 14259 c-110 -26 -228 -122 -280 -228 -31 -64 -32 -71 -35 -213
l-4 -148 111 0 111 0 0 113 c0 140 18 185 95 232 l48 30 606 0 606 0 57 -23
c106 -43 180 -116 223 -222 16 -38 20 -86 26 -305 5 -214 10 -273 27 -335 69
-255 229 -451 466 -566 l90 -44 -3985 0 c-3421 0 -3992 -2 -4038 -15 -183 -48
-322 -192 -366 -377 -18 -77 -21 -488 -4 -570 36 -173 166 -318 339 -380 l65
-23 4320 0 4320 0 65 25 c169 66 281 189 325 357 18 70 21 502 4 585 -40 194
-207 355 -405 391 l-65 13 38 13 c197 71 399 273 482 483 58 145 61 180 61
723 l0 495 -110 0 -110 0 0 -477 c0 -528 -3 -558 -62 -686 -125 -272 -429
-424 -722 -362 -38 8 -107 33 -155 56 -158 76 -290 238 -337 414 -11 43 -18
134 -23 320 -7 232 -10 267 -30 325 -68 197 -224 338 -429 391 -70 18 -113 19
-681 18 -333 -1 -623 -5 -644 -10z"/>
<path d="M1129 10931 c-174 -56 -302 -194 -344 -373 -18 -76 -21 -492 -4 -584
35 -196 199 -362 397 -403 38 -8 1264 -11 4325 -11 4705 0 4334 -5 4458 61
112 60 191 150 240 274 22 57 24 74 27 325 2 175 0 285 -8 325 -35 182 -177
336 -359 389 -50 15 -447 16 -4365 15 -4103 0 -4314 -1 -4367 -18z"/>
<path d="M1177 9279 c-103 -20 -218 -91 -292 -179 -45 -53 -88 -144 -104 -218
-17 -83 -14 -532 4 -611 44 -185 191 -332 376 -376 57 -13 562 -15 4344 -15
3812 0 4287 2 4340 15 182 48 323 189 370 370 22 85 22 555 0 640 -49 185
-206 336 -393 374 -67 14 -8572 13 -8645 0z"/>
<path d="M1192 7105 c-87 -38 -144 -108 -168 -208 -15 -57 -15 -69 -1 -124 18
-69 225 -491 248 -506 9 -6 28 -7 43 -3 23 6 43 39 147 249 106 211 122 250
127 303 6 82 -17 150 -74 213 -61 68 -114 91 -211 91 -45 -1 -92 -7 -111 -15z
m214 -30 c51 -21 110 -81 134 -137 17 -40 21 -65 18 -115 -4 -57 -15 -84 -117
-285 -125 -244 -127 -248 -148 -248 -16 0 -224 419 -243 490 -27 100 35 235
132 286 66 34 155 38 224 9z"/>
<path d="M1245 6996 c-17 -7 -43 -28 -58 -45 -79 -95 -13 -242 110 -244 87 -1
144 51 150 137 5 67 -20 113 -77 143 -49 26 -81 28 -125 9z m138 -36 c68 -59
73 -132 14 -197 -81 -88 -227 -30 -227 90 0 115 130 180 213 107z"/>
<path d="M0 1675 l0 -1675 5400 0 5400 0 0 1675 0 1675 -5400 0 -5400 0 0
-1675z m3023 886 c5 -5 4 -18 -2 -29 -10 -19 -13 -20 -41 -5 -38 19 -80 10
-80 -16 0 -14 14 -24 53 -36 66 -22 87 -41 87 -78 0 -50 -34 -77 -97 -77 -30
0 -67 7 -84 15 -25 14 -28 18 -18 36 7 14 16 18 27 14 67 -27 112 -25 112 4 0
12 -20 25 -62 42 -47 18 -65 30 -72 50 -13 38 11 81 53 95 35 11 107 2 124
-15z m107 -64 c0 -96 14 -127 60 -127 50 0 60 21 60 121 l0 89 30 0 30 0 0
-72 c0 -138 -32 -188 -119 -188 -83 1 -111 42 -119 172 l-5 88 32 0 31 0 0
-83z m394 -40 c25 -68 46 -126 46 -130 0 -4 -11 -7 -26 -7 -19 0 -28 7 -35 30
-10 28 -15 30 -59 30 -46 0 -49 -2 -55 -30 -5 -25 -11 -30 -36 -30 -16 0 -29
2 -29 4 0 6 90 238 96 248 3 4 16 8 28 8 21 0 29 -15 70 -123z m336 3 c41
-110 60 -144 60 -105 0 10 10 14 37 12 50 -3 63 24 63 131 0 81 0 82 25 82 25
0 25 0 25 -94 0 -52 -4 -106 -10 -121 -12 -31 -71 -59 -103 -49 -12 4 -39 6
-60 6 -34 -2 -40 1 -50 28 -10 27 -15 30 -58 30 -43 0 -48 -2 -58 -30 -7 -23
-16 -30 -35 -30 -15 0 -26 3 -26 6 0 3 21 62 47 130 43 115 49 124 73 124 24
0 29 -9 70 -120z m310 37 c0 -103 14 -130 68 -125 32 3 39 8 49 38 7 19 12 65
12 103 1 65 2 67 26 67 25 0 25 -1 25 -80 0 -130 -33 -180 -118 -180 -37 0
-50 6 -78 34 -34 34 -34 34 -34 130 0 96 0 96 25 96 25 0 25 -1 25 -83z m390
68 c38 -19 60 -63 60 -115 0 -90 -48 -130 -155 -130 l-65 0 0 130 0 130 65 0
c39 0 78 -6 95 -15z m269 -102 c24 -65 46 -124 48 -130 3 -9 -4 -13 -22 -13
-21 0 -29 7 -38 30 -10 27 -15 30 -58 30 -43 0 -48 -2 -58 -30 -7 -23 -16 -30
-35 -30 -15 0 -26 3 -26 6 0 3 21 62 47 130 43 115 49 124 72 124 24 0 30 -9
70 -117z m341 97 c0 -18 -7 -20 -60 -20 l-60 0 0 -35 0 -35 50 0 c43 0 50 -3
50 -20 0 -17 -7 -20 -50 -20 l-50 0 0 -55 c0 -52 -1 -55 -25 -55 l-25 0 0 130
0 130 85 0 c78 0 85 -2 85 -20z m183 -35 c11 -27 32 -85 48 -127 l28 -78 -27
0 c-21 0 -30 7 -39 30 -10 27 -15 30 -58 30 -42 0 -47 -2 -56 -30 -9 -24 -17
-30 -39 -30 l-29 0 23 58 c13 31 36 90 51 130 25 67 29 73 53 70 22 -2 30 -12
45 -53z m297 37 c0 -9 -32 -57 -70 -105 l-71 -87 71 0 c68 0 70 -1 70 -25 l0
-25 -105 0 c-99 0 -105 1 -105 21 0 11 32 58 70 103 39 46 70 86 70 90 0 3
-31 6 -70 6 -63 0 -70 2 -70 20 0 19 7 20 105 20 94 0 105 -2 105 -18z m290 3
c80 -41 80 -189 0 -230 -17 -9 -56 -15 -95 -15 l-65 0 0 130 0 130 65 0 c39 0
78 -6 95 -15z m150 -115 l0 -130 -25 0 -25 0 0 130 0 130 25 0 25 0 0 -130z
m230 110 c0 -18 -7 -20 -60 -20 l-60 0 0 -35 0 -35 50 0 c43 0 50 -3 50 -20 0
-17 -7 -20 -50 -20 l-50 0 0 -55 c0 -52 -1 -55 -25 -55 l-25 0 0 130 0 130 85
0 c78 0 85 -2 85 -20z m220 0 c0 -18 -7 -20 -65 -20 l-65 0 0 -30 c0 -30 1
-30 55 -30 52 0 55 -1 55 -25 0 -24 -3 -25 -55 -25 -54 0 -55 0 -55 -30 l0
-30 65 0 c63 0 65 -1 65 -25 0 -25 -1 -25 -90 -25 l-90 0 0 130 0 130 90 0
c83 0 90 -1 90 -20z m215 -5 c31 -30 33 -82 5 -118 l-21 -26 26 -40 c14 -23
25 -43 25 -46 0 -3 -12 -5 -28 -5 -22 0 -33 9 -55 46 -21 35 -32 45 -50 42
-18 -2 -23 -10 -25 -45 -3 -38 -6 -43 -28 -43 l-24 0 0 130 0 130 75 0 c67 0
79 -3 100 -25z m255 5 c0 -18 -7 -20 -65 -20 l-65 0 0 -30 c0 -30 1 -30 55
-30 52 0 55 -1 55 -25 0 -24 -3 -25 -55 -25 -54 0 -55 0 -55 -30 l0 -30 65 0
c63 0 65 -1 65 -25 0 -25 -1 -25 -90 -25 l-90 0 0 130 0 130 90 0 c83 0 90 -1
90 -20z m145 -61 l65 -81 0 81 0 81 30 0 30 0 0 -130 0 -130 -24 0 c-18 0 -41
21 -90 81 l-66 81 0 -81 c0 -80 0 -81 -25 -81 l-25 0 0 130 c0 122 1 130 20
130 12 0 43 -29 85 -81z m362 57 c26 -23 27 -26 12 -41 -16 -16 -19 -16 -46 5
-55 40 -113 3 -113 -72 0 -70 71 -106 122 -61 13 12 21 12 39 2 l23 -12 -32
-28 c-18 -16 -42 -29 -53 -29 -21 0 -21 0 2 -19 20 -16 21 -21 10 -35 -15 -17
-81 -22 -81 -6 0 6 14 10 30 10 17 0 30 5 30 10 0 6 -9 10 -20 10 -11 0 -20 6
-20 13 0 7 -16 21 -35 30 -24 11 -42 31 -56 61 -28 57 -20 107 26 153 29 29
40 33 83 33 40 0 57 -5 79 -24z m232 -93 c24 -65 46 -124 48 -130 3 -9 -4 -13
-22 -13 -21 0 -29 7 -38 30 -10 27 -15 30 -58 30 -43 0 -48 -2 -58 -30 -7 -23
-16 -30 -35 -30 -15 0 -26 3 -26 6 0 3 21 62 47 130 43 115 49 124 72 124 24
0 30 -9 70 -117z m121 -118 c0 -20 -5 -25 -25 -25 -20 0 -25 5 -25 25 0 20 5
25 25 25 20 0 25 -5 25 -25z m-3283 -295 c33 -21 53 -64 53 -115 0 -42 -5 -52
-39 -86 -33 -33 -45 -39 -81 -39 -78 0 -130 52 -130 130 0 110 103 168 197
110z m889 -7 l27 -24 -23 -16 c-14 -10 -25 -12 -29 -6 -12 20 -51 33 -76 27
-28 -7 -55 -50 -55 -87 0 -38 36 -77 71 -77 17 0 39 5 50 10 28 15 24 40 -6
40 -19 0 -25 5 -25 21 0 18 5 20 48 17 l47 -3 3 -67 c3 -67 3 -68 -23 -68 -14
0 -25 5 -25 10 0 7 -6 7 -19 0 -27 -14 -81 -12 -109 4 -78 43 -83 180 -9 229
48 31 113 27 153 -10z m771 7 c33 -21 53 -64 53 -115 0 -42 -5 -52 -39 -86
-33 -33 -45 -39 -81 -39 -78 0 -130 52 -130 130 0 110 103 168 197 110z m151
-57 l3 -83 -31 0 -30 0 0 78 c0 85 4 94 35 90 18 -3 20 -11 23 -85z m-1534 55
c20 -28 20 -57 2 -84 -13 -18 -13 -22 5 -37 19 -17 25 -62 11 -83 -15 -24 -54
-34 -126 -34 l-76 0 0 130 0 130 84 0 c76 0 86 -2 100 -22z m221 16 c20 -8 45
-56 45 -87 0 -13 -9 -36 -21 -50 l-20 -27 26 -45 27 -45 -30 0 c-25 0 -35 8
-56 45 -20 34 -33 45 -51 45 -23 0 -25 -4 -25 -45 0 -41 -2 -45 -25 -45 l-25
0 0 130 0 130 69 0 c38 0 77 -3 86 -6z m145 -124 l0 -130 -25 0 -25 0 0 130 0
130 25 0 25 0 0 -130z m463 75 c11 -27 32 -85 48 -127 l28 -78 -27 0 c-21 0
-30 7 -39 30 -10 27 -15 30 -58 30 -42 0 -47 -2 -56 -30 -9 -24 -17 -30 -39
-30 l-29 0 23 58 c13 31 36 90 51 130 25 67 29 73 53 70 22 -2 30 -12 45 -53z
m267 40 c80 -41 80 -189 0 -230 -17 -9 -56 -15 -95 -15 l-65 0 0 130 0 130 65
0 c39 0 78 -6 95 -15z m438 -217 c3 -25 0 -28 -27 -28 -26 0 -31 4 -31 23 0
30 9 39 35 35 13 -2 21 -12 23 -30z"/>
<path d="M3436 2476 c-22 -52 -21 -56 14 -56 33 0 35 7 16 60 l-13 35 -17 -39z"/>
<path d="M3772 2471 c-16 -52 -16 -51 18 -51 17 0 30 4 30 9 0 11 -29 81 -34
81 -1 0 -8 -17 -14 -39z"/>
<path d="M4450 2455 l0 -85 39 0 c31 0 44 6 60 26 50 63 4 144 -80 144 -17 0
-19 -9 -19 -85z"/>
<path d="M4742 2471 c-16 -52 -16 -51 18 -51 17 0 30 4 30 9 0 11 -29 81 -34
81 -1 0 -8 -17 -14 -39z"/>
<path d="M5287 2465 l-16 -45 35 0 c32 0 35 2 28 23 -13 41 -23 67 -28 67 -2
0 -11 -20 -19 -45z"/>
<path d="M5830 2455 l0 -85 39 0 c31 0 44 6 60 26 50 63 4 144 -80 144 -17 0
-19 -9 -19 -85z"/>
<path d="M6634 2526 c-3 -8 -4 -27 -2 -43 2 -23 8 -29 34 -31 52 -5 82 39 48
72 -19 20 -73 21 -80 2z"/>
<path d="M7662 2471 c-16 -52 -16 -51 18 -51 17 0 30 4 30 9 0 11 -29 81 -34
81 -1 0 -8 -17 -14 -39z"/>
<path d="M4484 2018 c-72 -34 -47 -158 31 -158 80 0 103 125 28 159 -28 13
-31 13 -59 -1z"/>
<path d="M6144 2018 c-72 -34 -47 -158 31 -158 80 0 103 125 28 159 -28 13
-31 13 -59 -1z"/>
<path d="M4730 1996 c0 -34 2 -36 33 -36 81 0 89 62 8 68 -41 3 -41 3 -41 -32z"/>
<path d="M4732 1888 c3 -30 6 -33 38 -36 46 -4 79 20 64 45 -8 12 -26 19 -58
21 l-47 3 3 -33z"/>
<path d="M4980 1985 c0 -44 1 -45 33 -45 36 0 51 8 59 31 11 29 -19 59 -58 59
-34 0 -34 0 -34 -45z"/>
<path d="M5627 1955 l-16 -45 35 0 c32 0 35 2 28 23 -13 41 -23 67 -28 67 -2
0 -11 -20 -19 -45z"/>
<path d="M5850 1945 l0 -85 39 0 c31 0 44 6 60 26 50 63 4 144 -80 144 -17 0
-19 -9 -19 -85z"/>
</g>
</svg>
